HIERARCHY
ROOT Hips
{
	OFFSET	0.00	0.00	0.00
	CHANNELS 6 Xposition Yposition Zposition Zrotation Xrotation Yrotation
	JOINT LeftUpLeg
	{
		OFFSET	 0.126116	-0.014019	-0.065224
		CHANNELS 3 Zrotation Xrotation Yrotation
		JOINT LeftLeg
		{
			OFFSET	 0.000000	 0.000000	 0.569914
			CHANNELS 3 Zrotation Xrotation Yrotation
			JOINT LeftFoot
			{
				OFFSET	 0.000000	 0.000000	 0.544423
				CHANNELS 3 Zrotation Xrotation Yrotation
				JOINT LeftToeBase
				{
					OFFSET	 0.000000	 0.000000	 0.207117
					CHANNELS 3 Zrotation Xrotation Yrotation
					End Site
					{
						OFFSET	 0.000000	 0.000000	 0.207117
					}
				}
			}
		}
	}
	JOINT RightUpLeg
	{
		OFFSET	-0.124023	-0.008373	-0.065224
		CHANNELS 3 Zrotation Xrotation Yrotation
		JOINT RightLeg
		{
			OFFSET	 0.000000	 0.000000	 0.570047
			CHANNELS 3 Zrotation Xrotation Yrotation
			JOINT RightFoot
			{
				OFFSET	 0.000000	 0.000000	 0.544354
				CHANNELS 3 Zrotation Xrotation Yrotation
				JOINT RightToeBase
				{
					OFFSET	 0.000000	 0.000000	 0.207540
					CHANNELS 3 Zrotation Xrotation Yrotation
					End Site
					{
						OFFSET	 0.000000	 0.000000	 0.207540
					}
				}
			}
		}
	}
	JOINT Spine
	{
		OFFSET	 0.000184	-0.007763	 0.117403
		CHANNELS 3 Zrotation Xrotation Yrotation
		JOINT Spine1
		{
			OFFSET	 0.000000	 0.000000	 0.137269
			CHANNELS 3 Zrotation Xrotation Yrotation
			JOINT Spine2
			{
				OFFSET	 0.000000	 0.000000	 0.156879
				CHANNELS 3 Zrotation Xrotation Yrotation
				JOINT LeftShoulder
				{
					OFFSET	 0.080501	-0.002496	 0.160144
					CHANNELS 3 Zrotation Xrotation Yrotation
					JOINT LeftArm
					{
						OFFSET	 0.000000	 0.000000	 0.164363
						CHANNELS 3 Zrotation Xrotation Yrotation
						JOINT LeftForeArm
						{
							OFFSET	 0.000000	 0.000000	 0.364576
							CHANNELS 3 Zrotation Xrotation Yrotation
							JOINT LeftHand
							{
								OFFSET	 0.000000	 0.000000	 0.360812
								CHANNELS 3 Zrotation Xrotation Yrotation
								JOINT LeftHandIndex1
								{
									OFFSET	 0.000000	 0.000000	 0.086006
									CHANNELS 3 Zrotation Xrotation Yrotation
									JOINT LeftHandIndex2
									{
										OFFSET	 0.000000	 0.000000	 0.047236
										CHANNELS 3 Zrotation Xrotation Yrotation
										JOINT LeftHandIndex3
										{
											OFFSET	-0.004284	-0.000551	 0.038166
											CHANNELS 3 Zrotation Xrotation Yrotation
											End Site
											{
												OFFSET	-0.004284	-0.000551	 0.038166
											}
										}
									}
								}
							}
						}
					}
				}
				JOINT Neck
				{
					OFFSET	 0.000000	 0.000000	 0.176489
					CHANNELS 3 Zrotation Xrotation Yrotation
					JOINT Head
					{
						OFFSET	 0.000000	-0.001747	 0.077940
						CHANNELS 3 Zrotation Xrotation Yrotation
						End Site
						{
							OFFSET	 0.000000	-0.001747	 0.077940
						}
					}
				}
				JOINT RightShoulder
				{
					OFFSET	-0.080363	 0.000306	 0.159706
					CHANNELS 3 Zrotation Xrotation Yrotation
					JOINT RightArm
					{
						OFFSET	 0.000000	 0.000000	 0.164196
						CHANNELS 3 Zrotation Xrotation Yrotation
						JOINT RightForeArm
						{
							OFFSET	 0.000000	 0.000000	 0.365611
							CHANNELS 3 Zrotation Xrotation Yrotation
							JOINT RightHand
							{
								OFFSET	 0.000000	 0.000000	 0.360648
								CHANNELS 3 Zrotation Xrotation Yrotation
								JOINT RightHandIndex1
								{
									OFFSET	 0.000000	 0.000000	 0.069977
									CHANNELS 3 Zrotation Xrotation Yrotation
									JOINT RightHandIndex2
									{
										OFFSET	 0.000000	 0.000000	 0.052305
										CHANNELS 3 Zrotation Xrotation Yrotation
										JOINT RightHandIndex3
										{
											OFFSET	 0.009002	-0.000782	 0.042196
											CHANNELS 3 Zrotation Xrotation Yrotation
											End Site
											{
												OFFSET	 0.009002	-0.000782	 0.042196
											}
										}
									}
								}
							}
						}
					}
				}
			}
		}
	}
}
MOTION
Frames:    9
Frame Time: 0.03333334
-0.000512	 0.045847	 1.278833	-0.039684	 3.242606	 0.469150	-2.092420	-5.894449	 178.728300	 2.146676	-11.716850	 0.520859	-0.118752	 70.025010	 0.065481	-2.385833	 28.452750	 0.000004	 9.513683	-5.372044	-178.745300	-0.791333	-10.103590	 0.765409	 5.034115	 68.989560	 1.283462	 2.384659	 28.388700	-0.000001	-7.292112	 6.848246	 1.509334	-3.158170	-5.100967	-0.431440	 9.628060	 8.120368	-0.819567	-90.994870	 68.611600	-177.443400	-7.417021	 2.527523	-10.361160	 23.982750	-5.923056	-23.762660	-9.597460	-31.886470	-5.736118	-2.027600	 6.559038	 9.033609	-5.188889	 0.308190	 3.541030	-5.234859	 0.342567	 0.430617	 4.695615	 20.936590	-7.677085	 5.009111	-16.122690	 2.283000	 88.762770	 66.968550	 176.884400	 7.943820	 6.580853	 5.064038	-24.971800	-10.771160	 31.388560	 6.965169	-31.265410	 6.998783	 1.803333	 3.979147	-15.098590	 4.898592	 3.004813	-9.310344	 5.224449	 0.395017	 2.014677
-0.000827	 0.047888	 1.279557	 0.003177	 3.750827	 0.497451	-2.224030	-6.439833	 178.635600	 2.067828	-11.483710	 0.511094	-0.227205	 69.719230	 0.176545	-2.385833	 28.452750	 0.000004	 9.422271	-5.805970	-178.665100	-0.795592	-9.659410	 0.731378	 4.959748	 68.535380	 1.355974	 2.384659	 28.388700	-0.000001	-7.574400	 7.093506	 1.565189	-3.171299	-6.029634	-0.553574	 9.531848	 9.093951	-0.903671	-90.929280	 68.151800	-177.315200	-6.940263	 2.926742	-10.791320	 23.462410	-5.906982	-24.733110	-9.563136	-33.829030	-6.464109	-2.027600	 6.559038	 9.033609	-5.188889	 0.308190	 3.541030	-5.234859	 0.342567	 0.430617	 4.714895	 22.342050	-8.082743	 5.182824	-17.322440	 2.376344	 88.636640	 66.079810	 176.674500	 7.315424	 6.573956	 5.729336	-24.723080	-10.734880	 31.855960	 6.503838	-32.823280	 7.106781	 1.803333	 3.979147	-15.098590	 4.898592	 3.004813	-9.310344	 5.224449	 0.395017	 2.014677
-0.001917	 0.056570	 1.281658	 0.168350	 5.761323	 0.634077	-2.372212	-8.821369	 178.278700	 2.131810	-10.928730	 0.483442	-0.575860	 68.719590	 0.558001	-2.385832	 28.452790	-0.000001	 8.999160	-7.631646	-178.387200	-1.138560	-8.036379	 0.561186	 5.077836	 66.886840	 1.546654	 2.384659	 28.388700	-0.000001	-8.438527	 7.911703	 1.651634	-3.190907	-9.203004	-0.862429	 8.913987	 12.282030	-1.215544	-90.831920	 66.256060	-177.328100	-4.661078	 4.685019	-12.586880	 20.868800	-5.119807	-27.311480	-11.383720	-40.207620	-10.066240	-2.027600	 6.559038	 9.033609	-5.188889	 0.308190	 3.541030	-5.234859	 0.342567	 0.430617	 4.455668	 25.791820	-8.795781	 5.424637	-20.445680	 2.462146	 88.397620	 62.939750	 176.533400	 4.570874	 7.164722	 7.893582	-23.443460	-10.087510	 33.010650	 5.700067	-37.978920	 8.438646	 1.803333	 3.979147	-15.098590	 4.898592	 3.004813	-9.310344	 5.224449	 0.395017	 2.014677
-0.002619	 0.068556	 1.282276	 0.528304	 8.456421	 0.705873	-2.888528	-12.848430	 177.889600	 2.024978	-11.824370	 0.500588	-0.744631	 68.006110	 0.859127	-2.385833	 28.452760	 0.000004	 8.419051	-11.283810	-178.026700	-1.528147	-8.332095	 0.524989	 5.807107	 66.042170	 1.134954	 2.384659	 28.388700	-0.000001	-9.206481	 8.482389	 1.565634	-3.091288	-12.603420	-1.043188	 7.837671	 15.035440	-1.323285	-91.436040	 64.936200	-179.098900	-1.905494	 7.136521	-12.114670	 18.192520	-4.187101	-30.604390	-15.632320	-45.443430	-15.145520	-2.027600	 6.559038	 9.033609	-5.188889	 0.308190	 3.541030	-5.234859	 0.342567	 0.430617	 3.782120	 26.904040	-8.755118	 5.063778	-22.008590	 2.337294	 88.933750	 61.083420	 178.017500	 0.776557	 9.246253	 7.840395	-21.851510	-9.385597	 34.787190	 6.043416	-42.855620	 10.930710	 1.803333	 3.979147	-15.098590	 4.898592	 3.004813	-9.310344	 5.224449	 0.395017	 2.014677
-0.002964	 0.084129	 1.281981	 0.875449	 11.760240	 0.608325	-3.440449	-17.878210	 177.584600	 2.012612	-12.926560	 0.543717	-0.988316	 67.205110	 1.149973	-2.385832	 28.452790	-0.000001	 8.047366	-16.292570	-177.416800	-1.824765	-9.553869	 0.551893	 6.652792	 65.507340	 0.487584	 2.384659	 28.388700	-0.000001	-9.882672	 8.878151	 1.508566	-2.710120	-15.253560	-1.112258	 6.426921	 16.849000	-0.878733	-92.576130	 65.102710	 177.864200	 0.973552	 11.300390	-10.440430	 17.280090	-4.137202	-34.587340	-19.700930	-49.702440	-20.031710	-2.027600	 6.559038	 9.033609	-5.188889	 0.308190	 3.541030	-5.234859	 0.342567	 0.430617	 3.127362	 25.322520	-9.022568	 4.175140	-21.956440	 1.985485	 90.050850	 60.295600	-179.388300	-3.217835	 13.044120	 7.109251	-19.864350	-8.346465	 36.760250	 8.238230	-47.658350	 14.208560	 1.803333	 3.979147	-15.098590	 4.898592	 3.004813	-9.310344	 5.224449	 0.395017	 2.014677
-0.005255	 0.105870	 1.281283	 2.461493	 17.385550	 0.690914	-5.676675	-25.659690	 176.212100	 2.943424	-13.919750	 0.809154	-2.544557	 65.479900	 1.913022	-2.385833	 28.452750	 0.000004	 6.363108	-23.465550	-177.130900	-1.405005	-9.853514	 0.641127	 6.043252	 63.478490	 0.635499	 2.384659	 28.388700	-0.000001	-10.987650	 8.397910	 1.126514	-2.769646	-16.906220	-1.293068	 4.449084	 16.725910	-0.597817	-93.678580	 65.390650	 174.852500	 5.073504	 15.661870	-11.837420	 16.867640	-3.774847	-35.327210	-23.407600	-52.370610	-24.585240	-2.027600	 6.559038	 9.033609	-5.188889	 0.308190	 3.541030	-5.234859	 0.342567	 0.430617	 2.601432	 24.282230	-8.302881	 2.839803	-22.402570	 1.434787	 91.322830	 60.688170	-176.448200	-7.955501	 18.179780	 8.574635	-18.025150	-6.927001	 37.504360	 11.755870	-51.013340	 18.520770	 1.803333	 3.979147	-15.098590	 4.898592	 3.004813	-9.310344	 5.224449	 0.395017	 2.014677
-0.008314	 0.122305	 1.279846	 4.024615	 21.656210	 0.445146	-7.948344	-31.485450	 174.884800	 3.662973	-15.050790	 1.061023	-3.762297	 64.759610	 2.534731	-2.385833	 28.452750	 0.000004	 4.828848	-29.754270	-177.052000	-1.983840	-12.615550	 0.691374	 7.010630	 63.900250	 0.161667	 2.384659	 28.388700	-0.000001	-11.972160	 8.785473	 0.796253	-2.747734	-15.725850	-0.658972	 2.728297	 15.573020	-0.880691	-94.328430	 66.240070	 172.791000	 7.676733	 18.500580	-15.757950	 16.656640	-3.312979	-34.499880	-26.783360	-53.905360	-28.441910	-2.027600	 6.559038	 9.033609	-5.188889	 0.308190	 3.541030	-5.234859	 0.342567	 0.430617	 2.170774	 23.662200	-6.863052	 1.330638	-23.072030	 0.440991	 92.230090	 61.608570	-174.176500	-11.328920	 22.353390	 12.292250	-17.047960	-6.228686	 38.624830	 15.052080	-52.540150	 22.108160	 1.803333	 3.979147	-15.098590	 4.898592	 3.004813	-9.310344	 5.224449	 0.395017	 2.014677
-0.012026	 0.138374	 1.274869	 4.163665	 23.594140	 0.261248	-8.466422	-36.222370	 174.220600	 3.733273	-19.260060	 1.370982	-4.062914	 66.149370	 2.881731	-2.385833	 28.452750	 0.000004	 4.865610	-35.068060	-176.826700	-2.124871	-18.219690	 0.945465	 8.257215	 65.827610	-1.074030	 2.384659	 28.388700	-0.000001	-12.504090	 10.770310	 0.514454	-1.804628	-9.896658	 0.585077	 1.151783	 13.750750	-1.105159	-94.562930	 68.899550	 170.705900	 9.110958	 20.520990	-22.566070	 16.345390	-2.814762	-34.212270	-30.342640	-54.938800	-32.249690	-2.027600	 6.559038	 9.033609	-5.188889	 0.308190	 3.541030	-5.234859	 0.342567	 0.430617	 1.407087	 22.322200	-6.044072	-0.240827	-23.549580	-0.343630	 92.880620	 63.103120	-172.198100	-13.363050	 26.023300	 19.773550	-15.680140	-5.202632	 40.055820	 21.167750	-53.465040	 27.040250	 1.803333	 3.979147	-15.098590	 4.898592	 3.004813	-9.310344	 5.224449	 0.395017	 2.014677
-0.014614	 0.160627	 1.268368	 3.565569	 25.621280	-0.083636	-7.816330	-41.089860	 174.262800	 3.962249	-21.756230	 1.625767	-4.130499	 65.659530	 3.002882	-2.385833	 28.452750	 0.000004	 6.338278	-40.609160	-175.567500	-3.086309	-21.845940	 0.766825	 10.185930	 65.720390	-2.120248	 2.384659	 28.388700	-0.000001	-12.692700	 11.818220	 0.037332	-0.642255	-5.535595	 1.662805	-0.177982	 12.438820	-1.018041	-94.685800	 70.415620	 169.018100	 8.468687	 20.044580	-26.548010	 15.385550	-2.195359	-35.910020	-33.012940	-54.832050	-34.427970	-2.027600	 6.559038	 9.033609	-5.188889	 0.308190	 3.541030	-5.234859	 0.342567	 0.430617	 0.637850	 21.790420	-5.229869	-1.663236	-24.476930	-1.305815	 93.296430	 64.849230	-170.442400	-14.328680	 27.642120	 25.882260	-14.217210	-4.039575	 41.286480	 25.890350	-52.743480	 30.290080	 1.803333	 3.979147	-15.098590	 4.898592	 3.004813	-9.310344	 5.224449	 0.395017	 2.014677
